<svg width="200" height="200" viewBox="0 0 100 80" fill="none"
  xmlns="http://www.w3.org/2000/svg">
  <path d="M106.724 40.2846C106.724 36.4821 107.891 33.2766 110.224 30.6681C112.575 28.0596 115.542 26.7554 119.124 26.7554C120.832 26.7554 122.375 27.031 123.753 27.582C125.149 28.1331 126.242 28.8495 127.032 29.7313V27.4167H135.27V51.5267C135.27 56.3947 134.177 59.8757 131.991 61.9698C129.805 64.0639 126.067 65.111 120.777 65.111C112.382 65.111 107.918 61.8412 107.385 55.3017L115.073 54.723C115.33 56.064 115.891 57.1019 116.754 57.8367C117.636 58.5898 119.032 58.9664 120.942 58.9664C123.11 58.9664 124.653 58.4888 125.571 57.5336C126.508 56.5967 126.977 55.0629 126.977 52.932V51.0032C126.334 51.7564 125.342 52.436 124.001 53.0422C122.66 53.6484 120.997 53.9515 119.013 53.9515C115.321 53.9515 112.345 52.6932 110.086 50.1766C107.845 47.6416 106.724 44.3442 106.724 40.2846ZM115.018 40.3948C115.018 42.7094 115.551 44.5371 116.616 45.8781C117.682 47.2007 119.16 47.862 121.052 47.862C122.853 47.862 124.322 47.1732 125.461 45.7954C126.618 44.4177 127.197 42.6175 127.197 40.3948C127.197 38.1904 126.618 36.4086 125.461 35.0493C124.304 33.6899 122.834 33.0102 121.052 33.0102C119.215 33.0102 117.746 33.6807 116.644 35.0217C115.56 36.3627 115.018 38.1537 115.018 40.3948Z" fill="white"/>
  <path d="M140.506 40.7254C140.506 36.5556 141.782 33.1847 144.336 30.613C146.907 28.0413 150.214 26.7554 154.255 26.7554C157.121 26.7554 159.582 27.4075 161.64 28.7118C163.697 30.016 165.213 31.7519 166.186 33.9195C167.16 36.0688 167.647 38.5303 167.647 41.3041C167.647 42.094 167.628 42.6542 167.592 42.9849H148.441C148.588 44.5463 149.222 45.8505 150.343 46.8976C151.482 47.9447 153.015 48.4682 154.944 48.4682C156.561 48.4682 157.929 48.0916 159.05 47.3385C160.189 46.5853 161.043 45.722 161.612 44.7484L167.288 48.5784C166.921 49.1111 166.508 49.6255 166.049 50.1215C165.608 50.6174 164.992 51.1777 164.202 51.8023C163.413 52.4085 162.568 52.9412 161.667 53.4004C160.786 53.8413 159.711 54.2087 158.444 54.5026C157.176 54.8149 155.835 54.971 154.421 54.971C150.361 54.971 147.027 53.7035 144.418 51.1685C141.81 48.6152 140.506 45.1341 140.506 40.7254ZM148.441 37.6945H159.684C159.592 36.1147 159.059 34.8472 158.085 33.892C157.13 32.9184 155.835 32.4316 154.2 32.4316C152.62 32.4316 151.279 32.9551 150.177 34.0022C149.075 35.0309 148.496 36.2616 148.441 37.6945Z" fill="white"/>
  <path d="M172.772 54.2822V27.4167H180.9V30.7508C181.58 29.5935 182.609 28.6383 183.986 27.8851C185.364 27.132 186.944 26.7554 188.726 26.7554C192.896 26.7554 195.688 28.3719 197.102 31.605C197.8 30.3007 198.912 29.171 200.436 28.2158C201.961 27.2422 203.724 26.7554 205.727 26.7554C208.758 26.7554 211.054 27.6188 212.615 29.3455C213.497 30.3558 214.112 31.5223 214.461 32.8449C214.81 34.1491 214.985 36.2157 214.985 39.0446V54.2822H206.746V40.7254C206.746 39.9723 206.737 39.4028 206.719 39.0171C206.719 38.6313 206.691 38.1445 206.636 37.5567C206.599 36.9689 206.526 36.528 206.416 36.2341C206.324 35.9402 206.177 35.6095 205.975 35.2421C205.773 34.8564 205.525 34.5808 205.231 34.4155C204.955 34.2318 204.597 34.0757 204.156 33.9471C203.734 33.8185 203.238 33.7542 202.668 33.7542C201.052 33.7542 199.867 34.3328 199.114 35.4901C198.361 36.629 197.984 38.1721 197.984 40.1192V54.2822H189.745V40.7254C189.745 39.9907 189.736 39.4212 189.718 39.0171C189.718 38.6129 189.69 38.1262 189.635 37.5567C189.58 36.9689 189.497 36.528 189.387 36.2341C189.295 35.9218 189.148 35.582 188.946 35.2146C188.762 34.8472 188.524 34.5808 188.23 34.4155C187.936 34.2318 187.568 34.0757 187.128 33.9471C186.705 33.8185 186.209 33.7542 185.64 33.7542C184.06 33.7542 182.893 34.3328 182.14 35.4901C181.387 36.629 181.011 38.1721 181.011 40.1192V54.2822H172.772Z" fill="white"/>
  <path d="M220.027 46.3742C220.027 43.6371 221.157 41.5889 223.417 40.2296C224.96 39.3111 227.155 38.6314 230.002 38.1905L235.21 37.3639C235.945 37.2537 236.404 37.1251 236.588 36.9782C236.79 36.8312 236.891 36.5465 236.891 36.124V35.6556C236.891 33.5431 235.577 32.4868 232.95 32.4868C229.975 32.4868 228.487 33.791 228.487 36.3995L220.854 36.3444C220.854 36.2709 220.854 36.1975 220.854 36.124C220.854 33.1848 221.929 30.9162 224.078 29.3181C226.282 27.6832 229.35 26.8657 233.281 26.8657C236.918 26.8657 239.692 27.5087 241.602 28.7945C243.531 30.0804 244.496 32.1837 244.496 35.1045V47.559C244.496 48.4224 244.588 49.0194 244.771 49.35C244.973 49.6623 245.359 49.8185 245.928 49.8185H246.314V54.5578C245.028 54.7966 243.752 54.916 242.484 54.916C239.508 54.916 237.791 54.0986 237.332 52.4637H237.276C235.678 54.1353 233.162 54.9711 229.727 54.9711C226.732 54.9711 224.363 54.218 222.618 52.7117C220.891 51.2054 220.027 49.0929 220.027 46.3742ZM228.211 46.4293C228.211 47.4947 228.569 48.2938 229.286 48.8265C230.002 49.3409 230.976 49.598 232.206 49.598C233.621 49.598 234.741 49.2674 235.568 48.6061C236.413 47.9264 236.836 46.9069 236.836 45.5475V42.1033C236.229 42.3421 235.228 42.6176 233.832 42.9299L231.986 43.3432C230.737 43.6004 229.855 43.8943 229.341 44.2249C228.588 44.6658 228.211 45.4006 228.211 46.4293Z" fill="white"/>
  <path d="M248.711 33.0103V27.4168H253.892V20.722L262.13 16.6431V27.4168H267.999V33.0103H262.13V44.9138C262.13 46.2915 262.36 47.21 262.819 47.6692C263.315 48.2387 264.344 48.5234 265.905 48.5234C266.787 48.5234 267.485 48.4867 267.999 48.4132V54.3925C266.493 54.6864 264.84 54.8333 263.04 54.8333C258.833 54.8333 256.16 54.071 255.021 52.5463C254.544 51.9218 254.232 51.2146 254.085 50.4247C253.956 49.6348 253.892 48.4959 253.892 47.0079V33.0103H248.711Z" fill="white"/>
  <path d="M273.125 54.2822V27.4167H281.253V31.0814C281.657 29.9793 282.567 28.9965 283.981 28.1331C285.414 27.2514 287.021 26.8105 288.803 26.8105C289.226 26.8105 289.547 26.8289 289.767 26.8656V34.7462C288.867 34.5257 287.986 34.4155 287.122 34.4155C284.238 34.4155 282.447 35.6738 281.749 38.1904C281.492 39.1457 281.363 40.3489 281.363 41.8001V54.2822H273.125Z" fill="white"/>
  <path d="M307.981 46.3742C307.981 43.6371 309.111 41.5889 311.37 40.2296C312.913 39.3111 315.108 38.6314 317.955 38.1905L323.163 37.3639C323.898 37.2537 324.357 37.1251 324.541 36.9782C324.743 36.8312 324.844 36.5465 324.844 36.124V35.6556C324.844 33.5431 323.531 32.4868 320.904 32.4868C317.928 32.4868 316.44 33.791 316.44 36.3995L308.807 36.3444C308.807 36.2709 308.807 36.1975 308.807 36.124C308.807 33.1848 309.882 30.9162 312.031 29.3181C314.236 27.6832 317.303 26.8657 321.234 26.8657C324.872 26.8657 327.645 27.5087 329.556 28.7945C331.485 30.0804 332.449 32.1837 332.449 35.1045V47.559C332.449 48.4224 332.541 49.0194 332.725 49.35C332.927 49.6623 333.312 49.8185 333.882 49.8185H334.268V54.5578C332.982 54.7966 331.705 54.916 330.438 54.916C327.462 54.916 325.744 54.0986 325.285 52.4637H325.23C323.632 54.1353 321.115 54.9711 317.68 54.9711C314.686 54.9711 312.316 54.218 310.571 52.7117C308.844 51.2054 307.981 49.0929 307.981 46.3742ZM316.164 46.4293C316.164 47.4947 316.523 48.2938 317.239 48.8265C317.955 49.3409 318.929 49.598 320.16 49.598C321.574 49.598 322.695 49.2674 323.521 48.6061C324.366 47.9264 324.789 46.9069 324.789 45.5475V42.1033C324.183 42.3421 323.182 42.6176 321.786 42.9299L319.939 43.3432C318.69 43.6004 317.809 43.8943 317.294 44.2249C316.541 44.6658 316.164 45.4006 316.164 46.4293Z" fill="white"/>
  <path d="M294.397 54.2825V27.417H302.69V54.2825H294.397Z" fill="white"/>
  <path d="M303.272 20.7401C303.272 23.4138 301.105 25.5812 298.431 25.5812C295.758 25.5812 293.59 23.4138 293.59 20.7401C293.59 18.0663 295.758 15.8989 298.431 15.8989C301.105 15.8989 303.272 18.0663 303.272 20.7401Z" fill="white"/>
  <mask id="mask0_25_2312" style="mask-type:alpha" maskUnits="userSpaceOnUse" x="0" y="0" width="93" height="79">
    <path d="M33.2663 5.6191C33.2663 7.12411 32.0533 8.34416 30.557 8.34416C29.0607 8.34416 27.8477 7.12411 27.8477 5.6191C27.8477 4.11409 29.0607 2.89404 30.557 2.89404C32.0533 2.89404 33.2663 4.11409 33.2663 5.6191Z" fill="black"/>
    <path d="M38.6847 76.0815C38.6847 77.5866 37.4717 78.8065 35.9754 78.8065C34.4791 78.8065 33.2661 77.5866 33.2661 76.0815C33.2661 74.5765 34.4791 73.3564 35.9754 73.3564C37.4717 73.3564 38.6847 74.5765 38.6847 76.0815Z" fill="black"/>
    <path d="M6.17345 38.8433C6.17345 40.3483 4.96046 41.5683 3.46416 41.5683C1.96787 41.5683 0.754883 40.3483 0.754883 38.8433C0.754883 37.3383 1.96787 36.1182 3.46416 36.1182C4.96046 36.1182 6.17345 37.3383 6.17345 38.8433Z" fill="black"/>
    <path d="M66.5518 46.2354C66.5518 47.7404 65.3388 48.9605 63.8425 48.9605C62.3462 48.9605 61.1333 47.7404 61.1333 46.2354C61.1333 44.7304 62.3462 43.5103 63.8425 43.5103C65.3388 43.5103 66.5518 44.7304 66.5518 46.2354Z" fill="black"/>
    <path d="M82.1626 46.2354C82.1626 47.7404 80.9496 48.9605 79.4533 48.9605C77.957 48.9605 76.7441 47.7404 76.7441 46.2354C76.7441 44.7304 77.957 43.5103 79.4533 43.5103C80.9496 43.5103 82.1626 44.7304 82.1626 46.2354Z" fill="black"/>
    <path d="M92.3546 30.668C92.3546 32.173 91.1416 33.393 89.6453 33.393C88.149 33.393 86.936 32.173 86.936 30.668C86.936 29.163 88.149 27.9429 89.6453 27.9429C91.1416 27.9429 92.3546 29.163 92.3546 30.668Z" fill="black"/>
    <path d="M69.2614 22.4887C69.2614 23.9937 68.0484 25.2138 66.5521 25.2138C65.0558 25.2138 63.8428 23.9937 63.8428 22.4887C63.8428 20.9837 65.0558 19.7637 66.5521 19.7637C68.0484 19.7637 69.2614 20.9837 69.2614 22.4887Z" fill="black"/>
    <path d="M83.4528 14.3134C83.4528 15.8184 82.2398 17.0385 80.7435 17.0385C79.2472 17.0385 78.0342 15.8184 78.0342 14.3134C78.0342 12.8084 79.2472 11.5884 80.7435 11.5884C82.2398 11.5884 83.4528 12.8084 83.4528 14.3134Z" fill="black"/>
    <path d="M49.3931 48.9604C49.3931 50.4654 48.1801 51.6856 46.6838 51.6856C45.1876 51.6856 43.9746 50.4654 43.9746 48.9604C43.9746 47.4554 45.1876 46.2354 46.6838 46.2354C48.1801 46.2354 49.3931 47.4554 49.3931 48.9604Z" fill="black"/>
    <path d="M32.1051 55.9678C32.1051 57.4728 30.8921 58.6929 29.3958 58.6929C27.8995 58.6929 26.6865 57.4728 26.6865 55.9678C26.6865 54.4628 27.8995 53.2427 29.3958 53.2427C30.8921 53.2427 32.1051 54.4628 32.1051 55.9678Z" fill="black"/>
    <path d="M44.5889 61.042C44.5889 62.547 43.3759 63.767 41.8796 63.767C40.3834 63.767 39.1704 62.547 39.1704 61.042C39.1704 59.5369 40.3834 58.3169 41.8796 58.3169C43.3759 58.3169 44.5889 59.5369 44.5889 61.042Z" fill="black"/>
    <path d="M13.2691 53.2427C13.2691 54.7477 12.0561 55.9677 10.5598 55.9677C9.06358 55.9677 7.85059 54.7477 7.85059 53.2427C7.85059 51.7377 9.06358 50.5176 10.5598 50.5176C12.0561 50.5176 13.2691 51.7377 13.2691 53.2427Z" fill="black"/>
    <path d="M34.2985 36.1181C34.2985 37.6231 33.0855 38.8432 31.5892 38.8432C30.0929 38.8432 28.8799 37.6231 28.8799 36.1181C28.8799 34.6131 30.0929 33.3931 31.5892 33.3931C33.0855 33.3931 34.2985 34.6131 34.2985 36.1181Z" fill="black"/>
    <path d="M50.7174 32.3506C50.7174 33.8556 49.5044 35.0757 48.0081 35.0757C46.5118 35.0757 45.2988 33.8556 45.2988 32.3506C45.2988 30.8456 46.5118 29.6255 48.0081 29.6255C49.5044 29.6255 50.7174 30.8456 50.7174 32.3506Z" fill="black"/>
    <path d="M60.4879 2.89401C60.4879 4.39902 59.2749 5.61907 57.7786 5.61907C56.2823 5.61907 55.0693 4.39902 55.0693 2.89401C55.0693 1.389 56.2823 0.168945 57.7786 0.168945C59.2749 0.168945 60.4879 1.389 60.4879 2.89401Z" fill="black"/>
    <path d="M45.9097 15.7406C45.9097 17.2456 44.6967 18.4657 43.2004 18.4657C41.7042 18.4657 40.4912 17.2456 40.4912 15.7406C40.4912 14.2356 41.7042 13.0156 43.2004 13.0156C44.6967 13.0156 45.9097 14.2356 45.9097 15.7406Z" fill="black"/>
    <path d="M26.6867 19.7636C26.6867 21.2686 25.4737 22.4887 23.9774 22.4887C22.4811 22.4887 21.2681 21.2686 21.2681 19.7636C21.2681 18.2586 22.4811 17.0386 23.9774 17.0386C25.4737 17.0386 26.6867 18.2586 26.6867 19.7636Z" fill="black"/>
    <path d="M11.5919 24.4351C11.5919 25.9401 10.3789 27.1601 8.88263 27.1601C7.38633 27.1601 6.17334 25.9401 6.17334 24.4351C6.17334 22.9301 7.38633 21.71 8.88263 21.71C10.3789 21.71 11.5919 22.9301 11.5919 24.4351Z" fill="black"/>
    <path fill-rule="evenodd" clip-rule="evenodd" d="M30.0418 55.771L36.3876 75.995L35.2434 76.3582L28.8975 56.1343L30.0418 55.771Z" fill="black"/>
    <path fill-rule="evenodd" clip-rule="evenodd" d="M42.6402 16.208L30.0938 6.46811L30.827 5.5127L43.3734 15.2526L42.6402 16.208Z" fill="black"/>
    <path fill-rule="evenodd" clip-rule="evenodd" d="M57.7788 3.88711L30.557 6.46834L30.4443 5.26679L57.6662 2.68555L57.7788 3.88711Z" fill="black"/>
    <path fill-rule="evenodd" clip-rule="evenodd" d="M58.3129 3.65096L43.9013 16.2083L43.1157 15.2961L57.5272 2.73877L58.3129 3.65096Z" fill="black"/>
    <path fill-rule="evenodd" clip-rule="evenodd" d="M80.4763 15.0873L57.5469 3.65107L58.0799 2.56982L81.0093 14.006L80.4763 15.0873Z" fill="black"/>
    <path fill-rule="evenodd" clip-rule="evenodd" d="M66.2363 23.2752L43.2002 16.5903L43.5328 15.4307L66.5689 22.1156L66.2363 23.2752Z" fill="black"/>
    <path fill-rule="evenodd" clip-rule="evenodd" d="M65.8657 22.8788L57.0273 3.19351L58.1208 2.69678L66.9592 22.382L65.8657 22.8788Z" fill="black"/>
    <path fill-rule="evenodd" clip-rule="evenodd" d="M47.0932 32.7055L42.2803 16.5904L43.4295 16.2432L48.2424 32.3583L47.0932 32.7055Z" fill="black"/>
    <path fill-rule="evenodd" clip-rule="evenodd" d="M63.388 47.0491L47.481 33.3931L48.2599 32.4751L64.167 46.1311L63.388 47.0491Z" fill="black"/>
    <path fill-rule="evenodd" clip-rule="evenodd" d="M89.3637 31.462L66.2368 23.2746L66.6352 22.1362L89.7621 30.3236L89.3637 31.462Z" fill="black"/>
    <path fill-rule="evenodd" clip-rule="evenodd" d="M81.5999 13.9355L90.5088 30.1418L89.4587 30.7258L80.5498 14.5194L81.5999 13.9355Z" fill="black"/>
    <path fill-rule="evenodd" clip-rule="evenodd" d="M81.2367 15.1008L66.552 22.4904L66.0151 21.4111L80.6999 14.0215L81.2367 15.1008Z" fill="black"/>
    <path fill-rule="evenodd" clip-rule="evenodd" d="M62.8154 46.2357L65.6342 22.4907L66.8256 22.6338L64.0069 46.3788L62.8154 46.2357Z" fill="black"/>
    <path fill-rule="evenodd" clip-rule="evenodd" d="M79.6276 47.0266L64.0303 46.8713L64.0422 45.6646L79.6395 45.8199L79.6276 47.0266Z" fill="black"/>
    <path fill-rule="evenodd" clip-rule="evenodd" d="M89.8971 31.2604L80.094 47.0488L79.0762 46.4095L88.8794 30.6211L89.8971 31.2604Z" fill="black"/>
    <path fill-rule="evenodd" clip-rule="evenodd" d="M46.6841 48.0511L63.6445 46.0942L63.7813 47.2932L46.8209 49.2501L46.6841 48.0511Z" fill="black"/>
    <path fill-rule="evenodd" clip-rule="evenodd" d="M32.4939 36.1182L29.897 55.8803L28.7075 55.7222L31.3044 35.96L32.4939 36.1182Z" fill="black"/>
    <path fill-rule="evenodd" clip-rule="evenodd" d="M48.3238 33.1469L31.8716 36.8243L31.6113 35.646L48.0635 31.9688L48.3238 33.1469Z" fill="black"/>
    <path fill-rule="evenodd" clip-rule="evenodd" d="M45.9096 49.5722L30.9873 36.8242L31.764 35.9043L46.6863 48.6523L45.9096 49.5722Z" fill="black"/>
    <path fill-rule="evenodd" clip-rule="evenodd" d="M35.1177 75.6273L41.0586 60.689L42.1727 61.1373L36.2317 76.0755L35.1177 75.6273Z" fill="black"/>
    <path fill-rule="evenodd" clip-rule="evenodd" d="M35.3625 76.7927L9.9917 53.9555L10.7918 53.0562L36.1627 75.8933L35.3625 76.7927Z" fill="black"/>
    <path fill-rule="evenodd" clip-rule="evenodd" d="M9.9917 52.7926L30.9874 35.5269L31.7469 36.4612L10.7512 53.727L9.9917 52.7926Z" fill="black"/>
    <path fill-rule="evenodd" clip-rule="evenodd" d="M29.1381 56.5348L10.5601 53.9558L10.7242 52.7603L29.3022 55.3392L29.1381 56.5348Z" fill="black"/>
    <path fill-rule="evenodd" clip-rule="evenodd" d="M2.60303 38.5858L8.00739 24.0903L9.13089 24.5141L3.72653 39.0095L2.60303 38.5858Z" fill="black"/>
    <path fill-rule="evenodd" clip-rule="evenodd" d="M24.2202 20.693L9.31332 25.3134L8.95996 24.1601L23.8669 19.5396L24.2202 20.693Z" fill="black"/>
    <path fill-rule="evenodd" clip-rule="evenodd" d="M31.2909 6.10703L9.31328 25.0417L8.53271 24.1251L30.5103 5.19043L31.2909 6.10703Z" fill="black"/>
    <path fill-rule="evenodd" clip-rule="evenodd" d="M31.291 6.10673L24.9409 19.9325L23.8516 19.4263L30.2017 5.60059L31.291 6.10673Z" fill="black"/>
    <path fill-rule="evenodd" clip-rule="evenodd" d="M30.7149 36.4217L23.3193 20.1442L24.4106 19.6426L31.8062 35.9201L30.7149 36.4217Z" fill="black"/>
    <path fill-rule="evenodd" clip-rule="evenodd" d="M43.4511 16.5901L24.2207 20.4664L23.9849 19.283L43.2153 15.4067L43.4511 16.5901Z" fill="black"/>
    <path fill-rule="evenodd" clip-rule="evenodd" d="M9.43994 53.2427L2.60303 39.3558L3.6783 38.8203L10.5152 52.7071L9.43994 53.2427Z" fill="black"/>
    <path fill-rule="evenodd" clip-rule="evenodd" d="M31.4396 37.0476L3.46405 39.6275L3.35449 38.4256L31.3301 35.8457L31.4396 37.0476Z" fill="black"/>
    <path fill-rule="evenodd" clip-rule="evenodd" d="M24.6254 20.4666L3.95377 39.6278L3.14062 38.7403L23.8122 19.5791L24.6254 20.4666Z" fill="black"/>
    <path fill-rule="evenodd" clip-rule="evenodd" d="M66.5521 23.5342L48.3237 33.1466L47.7666 32.0777L65.9949 22.4653L66.5521 23.5342Z" fill="black"/>
    <path fill-rule="evenodd" clip-rule="evenodd" d="M46.684 49.8404L29.7888 56.3527L29.3594 55.2258L46.2546 48.7134L46.684 49.8404Z" fill="black"/>
    <path fill-rule="evenodd" clip-rule="evenodd" d="M47.4809 49.572L42.434 61.8045L41.3257 61.3419L46.3726 49.1094L47.4809 49.572Z" fill="black"/>
    <path fill-rule="evenodd" clip-rule="evenodd" d="M29.6489 55.3584L41.8799 60.1555L41.4439 61.2799L29.2129 56.4829L29.6489 55.3584Z" fill="black"/>
    <path fill-rule="evenodd" clip-rule="evenodd" d="M48.9171 32.3507L47.4809 48.9607L46.2856 48.8561L47.7217 32.2461L48.9171 32.3507Z" fill="black"/>
  </mask>
  <g mask="url(#mask0_25_2312)">
    <path d="M98.9465 -7.78955H-28.7104V97.0435H98.9465V-7.78955Z" fill="#17CD4C"/>
  </g>
</svg>
